<svg xmlns="http://www.w3.org/2000/svg" viewBox="0 0 512 512">
  <rect width="512" height="512" rx="112" fill="#0f172a"/>
  <path d="M256 120C256 120 160 216 160 312C160 365 203 408 256 408C309 408 352 365 352 312C352 216 256 120 256 120Z" fill="#3b82f6"/>
  <path d="M256 190C256 190 200 256 200 312C200 343 225 368 256 368C287 368 312 343 312 312C312 256 256 190 256 190Z" fill="#60a5fa"/>
  <path d="M256 260C256 260 220 300 220 330C220 350 236 366 256 366C276 366 292 350 292 330C292 300 256 260 256 260Z" fill="#93c5fd"/>
</svg>
